# xmcd CD database file
#
# Track frame offsets:
#	150
#	40972
#	73187
#	100667
#	135520
#	182392
#	195622
#	242612
#
# Disc length: 3665 seconds
#
# Revision: 0
# Processed by: cddbd v1.4PL0 Copyright (c) Steve Scherf et al.
# Submitted via: CDex 1.51
#
DISCID=650e4f08
DTITLE=Pepper Adams - Julian
DYEAR=1975
DGENRE=Jazz
TTITLE0=Jirge
TTITLE1=Julian
TTITLE2=Spacemaker
TTITLE3=Ad Astra
TTITLE4=Three and One
TTITLE5=Tis
TTITLE6=Time on My Hand
TTITLE7=Lady Luck
EXTD=YEAR: 1975
EXTT0=
EXTT1=
EXTT2=
EXTT3=
EXTT4=
EXTT5=
EXTT6=
EXTT7=
PLAYORDER=
